REM DIRINDEX 1\2\6,1\2\7,1\2\8,1\3\9,1\3\10,1\3\11,1\4\12,1\4\13,1\4\14,1\5\15,1\5\16,1\5\17,1\5\18
REM DIRNAME folder01,folder02,folder03,folder04,folder05,folder06,folder07,folder08,folder09,folder10,folder11,folder12,folder13,folder14,folder15,folder16,folder17,folder18
TITLE ""
FILE "2Q_t_0406-0422.mp3" MP3
  TRACK 01 AUDIO
    TITLE "12:cjc019_2869"
    INDEX 01 00:00:00
  TRACK 02 AUDIO
    TITLE "0:"
    INDEX 01 00:06:63
  TRACK 03 AUDIO
    TITLE "13:cjc019_2870"
    INDEX 01 00:07:72
  TRACK 04 AUDIO
    TITLE "0:"
    INDEX 01 00:09:22
  TRACK 05 AUDIO
    TITLE "14:cjc019_2871"
    INDEX 01 00:10:06
  TRACK 06 AUDIO
    TITLE "0:"
    INDEX 01 00:11:58
  TRACK 07 AUDIO
    TITLE "13:cjc019_2872"
    INDEX 01 00:12:36
  TRACK 08 AUDIO
    TITLE "0:"
    INDEX 01 00:13:30
  TRACK 09 AUDIO
    TITLE "14:cjc019_2873"
    INDEX 01 00:14:23
  TRACK 10 AUDIO
    TITLE "0:"
    INDEX 01 00:17:29
  TRACK 11 AUDIO
    TITLE "13:cjc019_2874"
    INDEX 01 00:18:07
  TRACK 12 AUDIO
    TITLE "0:"
    INDEX 01 00:19:28
  TRACK 13 AUDIO
    TITLE "14:cjc019_2875"
    INDEX 01 00:20:06
  TRACK 14 AUDIO
    TITLE "0:"
    INDEX 01 00:23:06
  TRACK 15 AUDIO
    TITLE "13:cjc019_2876"
    INDEX 01 00:23:59
  TRACK 16 AUDIO
    TITLE "0:"
    INDEX 01 00:25:19
  TRACK 17 AUDIO
    TITLE "14:cjc019_2877"
    INDEX 01 00:25:74
  TRACK 18 AUDIO
    TITLE "0:"
    INDEX 01 00:27:24
  TRACK 19 AUDIO
    TITLE "13:cjc019_2878"
    INDEX 01 00:28:06
  TRACK 20 AUDIO
    TITLE "0:"
    INDEX 01 00:29:25
  TRACK 21 AUDIO
    TITLE "14:cjc019_2879"
    INDEX 01 00:30:05
  TRACK 22 AUDIO
    TITLE "0:"
    INDEX 01 00:32:72
  TRACK 23 AUDIO
    TITLE "13:cjc019_2880"
    INDEX 01 00:33:46
  TRACK 24 AUDIO
    TITLE "0:"
    INDEX 01 00:34:61
  TRACK 25 AUDIO
    TITLE "14:cjc019_2881"
    INDEX 01 00:35:43
  TRACK 26 AUDIO
    TITLE "0:"
    INDEX 01 00:38:61
  TRACK 27 AUDIO
    TITLE "13:cjc019_2882"
    INDEX 01 00:39:35
  TRACK 28 AUDIO
    TITLE "0:"
    INDEX 01 00:40:66
  TRACK 29 AUDIO
    TITLE "14:cjc019_2883"
    INDEX 01 00:41:47
  TRACK 30 AUDIO
    TITLE "0:"
    INDEX 01 00:45:12
  TRACK 31 AUDIO
    TITLE "13:cjc019_2884"
    INDEX 01 00:45:65
  TRACK 32 AUDIO
    TITLE "0:"
    INDEX 01 00:47:09
  TRACK 33 AUDIO
    TITLE "14:cjc019_2885"
    INDEX 01 00:47:62
  TRACK 34 AUDIO
    TITLE "0:"
    INDEX 01 00:50:50
  TRACK 35 AUDIO
    TITLE "13:cjc019_2886"
    INDEX 01 00:51:24
  TRACK 36 AUDIO
    TITLE "0:"
    INDEX 01 00:52:53
  TRACK 37 AUDIO
    TITLE "14:cjc019_2887"
    INDEX 01 00:53:37
  TRACK 38 AUDIO
    TITLE "0:"
    INDEX 01 00:57:05
  TRACK 39 AUDIO
    TITLE "13:cjc019_2888"
    INDEX 01 00:57:62
  TRACK 40 AUDIO
    TITLE "0:"
    INDEX 01 00:59:10
  TRACK 41 AUDIO
    TITLE "14:cjc019_2889"
    INDEX 01 00:59:69
  TRACK 42 AUDIO
    TITLE "0:"
    INDEX 01 01:03:22
  TRACK 43 AUDIO
    TITLE "13:cjc019_2890"
    INDEX 01 01:04:05
  TRACK 44 AUDIO
    TITLE "0:"
    INDEX 01 01:05:07
  TRACK 45 AUDIO
    TITLE "14:cjc019_2891"
    INDEX 01 01:05:69
  TRACK 46 AUDIO
    TITLE "0:"
    INDEX 01 01:08:35
  TRACK 47 AUDIO
    TITLE "13:cjc019_2892"
    INDEX 01 01:09:14
  TRACK 48 AUDIO
    TITLE "0:"
    INDEX 01 01:10:47
  TRACK 49 AUDIO
    TITLE "14:cjc019_2893"
    INDEX 01 01:11:29
  TRACK 50 AUDIO
    TITLE "0:"
    INDEX 01 01:14:72
  TRACK 51 AUDIO
    TITLE "13:cjc019_2894"
    INDEX 01 01:15:52
  TRACK 52 AUDIO
    TITLE "0:"
    INDEX 01 01:17:00
  TRACK 53 AUDIO
    TITLE "14:cjc019_2895"
    INDEX 01 01:17:49
  TRACK 54 AUDIO
    TITLE "0:"
    INDEX 01 01:20:24
  TRACK 55 AUDIO
    TITLE "13:cjc019_2896"
    INDEX 01 01:21:08
  TRACK 56 AUDIO
    TITLE "0:"
    INDEX 01 01:22:09
  TRACK 57 AUDIO
    TITLE "14:cjc019_2897"
    INDEX 01 01:22:66
  TRACK 58 AUDIO
    TITLE "0:"
    INDEX 01 01:25:23
  TRACK 59 AUDIO
    TITLE "13:cjc019_2898"
    INDEX 01 01:26:05
  TRACK 60 AUDIO
    TITLE "0:"
    INDEX 01 01:27:18
  TRACK 61 AUDIO
    TITLE "14:cjc019_2899"
    INDEX 01 01:28:06
  TRACK 62 AUDIO
    TITLE "0:"
    INDEX 01 01:29:54
  TRACK 63 AUDIO
    TITLE "13:cjc019_2900"
    INDEX 01 01:30:38
  TRACK 64 AUDIO
    TITLE "0:"
    INDEX 01 01:31:61
  TRACK 65 AUDIO
    TITLE "14:cjc019_2901"
    INDEX 01 01:32:37
  TRACK 66 AUDIO
    TITLE "0:"
    INDEX 01 01:34:12
  TRACK 67 AUDIO
    TITLE "13:cjc019_2902"
    INDEX 01 01:34:61
  TRACK 68 AUDIO
    TITLE "0:"
    INDEX 01 01:35:63
  TRACK 69 AUDIO
    TITLE "14:cjc019_2903"
    INDEX 01 01:36:43
  TRACK 70 AUDIO
    TITLE "0:"
    INDEX 01 01:41:57
